<svg width="20" height="20" viewBox="0 0 20 20" fill="none" xmlns="http://www.w3.org/2000/svg">
<path d="M18.3334 6.04169H13.3334C12.9917 6.04169 12.7084 5.75835 12.7084 5.41669C12.7084 5.07502 12.9917 4.79169 13.3334 4.79169H18.3334C18.675 4.79169 18.9584 5.07502 18.9584 5.41669C18.9584 5.75835 18.675 6.04169 18.3334 6.04169Z" fill="white"/>
<path d="M4.99996 6.04169H1.66663C1.32496 6.04169 1.04163 5.75835 1.04163 5.41669C1.04163 5.07502 1.32496 4.79169 1.66663 4.79169H4.99996C5.34163 4.79169 5.62496 5.07502 5.62496 5.41669C5.62496 5.75835 5.34163 6.04169 4.99996 6.04169Z" fill="white"/>
<path d="M8.33329 8.95833C6.38329 8.95833 4.79163 7.36667 4.79163 5.41667C4.79163 3.46667 6.38329 1.875 8.33329 1.875C10.2833 1.875 11.875 3.46667 11.875 5.41667C11.875 7.36667 10.2833 8.95833 8.33329 8.95833ZM8.33329 3.125C7.06663 3.125 6.04163 4.15 6.04163 5.41667C6.04163 6.68333 7.06663 7.70833 8.33329 7.70833C9.59996 7.70833 10.625 6.68333 10.625 5.41667C10.625 4.15 9.59996 3.125 8.33329 3.125Z" fill="white"/>
<path d="M18.3333 15.2083H15C14.6583 15.2083 14.375 14.925 14.375 14.5833C14.375 14.2416 14.6583 13.9583 15 13.9583H18.3333C18.675 13.9583 18.9583 14.2416 18.9583 14.5833C18.9583 14.925 18.675 15.2083 18.3333 15.2083Z" fill="white"/>
<path d="M6.66663 15.2083H1.66663C1.32496 15.2083 1.04163 14.925 1.04163 14.5833C1.04163 14.2416 1.32496 13.9583 1.66663 13.9583H6.66663C7.00829 13.9583 7.29163 14.2416 7.29163 14.5833C7.29163 14.925 7.00829 15.2083 6.66663 15.2083Z" fill="white"/>
<path d="M11.6667 18.125C9.71667 18.125 8.125 16.5334 8.125 14.5834C8.125 12.6334 9.71667 11.0417 11.6667 11.0417C13.6167 11.0417 15.2083 12.6334 15.2083 14.5834C15.2083 16.5334 13.6167 18.125 11.6667 18.125ZM11.6667 12.2917C10.4 12.2917 9.375 13.3167 9.375 14.5834C9.375 15.85 10.4 16.875 11.6667 16.875C12.9333 16.875 13.9583 15.85 13.9583 14.5834C13.9583 13.3167 12.9333 12.2917 11.6667 12.2917Z" fill="white"/>
</svg>
