<svg width="18" height="18" viewBox="0 0 18 18" fill="none" xmlns="http://www.w3.org/2000/svg">
<path d="M8.83697 1.125C9.00165 1.21825 9.09405 1.34401 9.09234 1.54847C9.08122 3.01181 9.62018 4.2587 10.5933 5.33492C11.1601 5.962 11.7671 6.55187 12.3035 7.20718C13.2843 8.40531 13.7878 9.77796 13.8275 11.3209C13.8327 11.5258 13.89 11.5848 14.0936 11.5771C14.5119 11.5608 14.9316 11.5702 15.3508 11.5728C16.3461 11.5784 17.0669 12.2401 17.1276 13.235C17.1571 13.7163 17.1563 14.2022 17.1293 14.6838C17.0733 15.6749 16.3508 16.3456 15.3546 16.3495C14.1184 16.3542 12.8822 16.3508 11.646 16.3508C11.554 16.3508 11.4651 16.3474 11.3821 16.4068C10.4457 17.0784 9.3892 17.3239 8.25052 17.3239C6.26448 17.3243 4.65785 16.5424 3.41438 15.0115C2.94171 14.428 2.65812 13.7483 2.56187 12.9972C2.55588 12.9497 2.53749 12.904 2.52466 12.8573C2.52466 12.6157 2.52466 12.374 2.52466 12.1319C2.53535 12.1058 2.55246 12.0801 2.55546 12.0532C2.64956 11.2216 3.00374 10.4914 3.42978 9.78823C3.73476 9.28434 4.0667 8.7967 4.33276 8.26929C4.6741 7.59259 4.83365 6.8838 4.71773 6.12583C4.69592 5.98211 4.74639 5.87089 4.86659 5.79988C4.98294 5.73144 5.098 5.76224 5.20494 5.8371C6.15669 6.4984 6.59941 7.37785 6.38468 8.54989C6.29784 9.02427 6.17765 9.49308 6.15198 9.97815C6.1323 10.3464 6.29314 10.6065 6.60711 10.7793C7.36038 11.1934 8.2471 10.808 8.4567 9.97558C8.60598 9.38272 8.47595 8.82108 8.25651 8.271C7.99601 7.61739 7.65253 7.00315 7.35482 6.36708C6.63705 4.83274 6.80943 3.40576 7.84673 2.07418C8.04349 1.82181 8.25181 1.58013 8.47124 1.347C8.55466 1.25846 8.64491 1.18317 8.75142 1.12543C8.78008 1.125 8.80874 1.125 8.83697 1.125ZM5.38374 6.78456C5.34396 7.02967 5.31787 7.24525 5.27253 7.45699C5.11683 8.17732 4.7511 8.80269 4.36997 9.42036C4.07183 9.90372 3.76086 10.3798 3.51918 10.8957C3.22189 11.5305 3.05165 12.1905 3.14575 12.8984C3.28092 13.9173 3.8109 14.7129 4.56717 15.3717C5.94281 16.5706 7.555 16.9086 9.32118 16.6386C9.61505 16.5937 9.8995 16.4842 10.21 16.3238C10.1288 16.3161 10.101 16.3127 10.0727 16.311C9.2104 16.258 8.56064 15.6728 8.44087 14.8181C8.37585 14.3528 8.41906 13.8814 8.41735 13.4126C8.4135 12.2688 9.13468 11.551 10.2798 11.5493C11.1892 11.548 12.099 11.5441 13.0084 11.5531C13.1833 11.5548 13.2372 11.5142 13.23 11.3316C13.1744 9.95377 12.7483 8.71714 11.8757 7.63921C11.347 6.98646 10.743 6.40258 10.1865 5.7755C9.55773 5.06715 9.044 4.29121 8.76126 3.37711C8.64491 3.00026 8.57733 2.61272 8.52043 2.20935C8.4845 2.2333 8.46397 2.241 8.45157 2.25597C7.59093 3.2984 7.24103 4.43921 7.75519 5.75882C7.98532 6.34911 8.29159 6.90177 8.5585 7.47367C8.88573 8.17433 9.13939 8.88952 9.09405 9.68386C9.02646 10.8692 8.1607 11.6489 7.0062 11.533C6.2756 11.4594 5.40256 10.9055 5.57152 9.75871C5.6451 9.25953 5.77043 8.77061 5.83031 8.26971C5.89661 7.72134 5.77813 7.23071 5.38374 6.78456ZM12.7641 15.7297C13.638 15.7297 14.5115 15.7352 15.3854 15.728C16.0433 15.7224 16.5061 15.2874 16.536 14.6342C16.5566 14.1804 16.5557 13.7244 16.5365 13.2705C16.5087 12.6169 16.0403 12.1725 15.3914 12.1712C13.6509 12.1674 11.9108 12.1674 10.1703 12.1712C9.49485 12.1725 9.02261 12.6499 9.01406 13.3283C9.00935 13.712 9.01278 14.0957 9.0132 14.4794C9.01449 15.2793 9.46619 15.7288 10.2708 15.7301C11.1019 15.7305 11.933 15.7297 12.7641 15.7297Z" fill="#0A0A0C"/>
<path d="M15.0616 14.2488C15.0616 14.4473 15.0654 14.6462 15.0607 14.8447C15.0547 15.0868 14.9448 15.1975 14.7087 15.2027C14.517 15.207 14.3254 15.2078 14.1342 15.2023C13.7539 15.1911 13.5204 14.9443 13.5041 14.5439C13.4857 14.0948 13.6799 13.8275 14.0641 13.7783C14.1479 13.7676 14.2339 13.7736 14.3186 13.7663C14.3755 13.7616 14.4597 13.7924 14.4601 13.6889C14.4601 13.6063 14.4114 13.5528 14.3293 13.5494C14.1736 13.5434 14.017 13.5481 13.8613 13.5447C13.6384 13.5396 13.505 13.4211 13.5084 13.2359C13.5118 13.052 13.6444 12.942 13.8724 12.9382C14.0213 12.936 14.1706 12.9356 14.3194 12.9382C14.7497 12.9454 15.0393 13.2218 15.059 13.6525C15.068 13.8506 15.0607 14.0499 15.0607 14.2484C15.0607 14.2488 15.0611 14.2488 15.0616 14.2488ZM14.3049 14.3506C14.2193 14.3545 14.1231 14.3249 14.1274 14.4648C14.1316 14.5987 14.2283 14.5559 14.2942 14.5563C14.3678 14.5568 14.4721 14.5983 14.4751 14.455C14.479 14.3061 14.3695 14.3651 14.3049 14.3506Z" fill="#0A0A0C"/>
<path d="M10.6732 13.2964C10.7125 13.2476 10.7523 13.1993 10.7908 13.1497C10.9375 12.9611 11.1116 12.9179 11.2626 13.0329C11.4033 13.1403 11.4042 13.2998 11.2635 13.503C11.1946 13.6023 11.1283 13.7036 11.0517 13.7965C10.9859 13.876 10.9918 13.9389 11.0496 14.0206C11.1972 14.2289 11.3383 14.4424 11.4791 14.6554C11.5992 14.8376 11.5791 14.9997 11.429 15.1015C11.2827 15.2008 11.1215 15.1571 10.9918 14.9817C10.8866 14.8397 10.7835 14.696 10.6787 14.5536C10.6762 14.5497 10.6663 14.551 10.63 14.545C10.63 14.6502 10.6347 14.7529 10.6291 14.8547C10.6184 15.0489 10.4986 15.1704 10.322 15.1618C10.1372 15.1533 10.0285 15.0485 10.0268 14.865C10.0217 14.2328 10.0213 13.6005 10.0268 12.9683C10.0285 12.7793 10.1659 12.6492 10.3374 12.6638C10.5175 12.6787 10.6223 12.781 10.6295 12.967C10.6334 13.0718 10.6304 13.1766 10.6304 13.2819C10.6441 13.287 10.6586 13.2917 10.6732 13.2964Z" fill="#0A0A0C"/>
<path d="M11.7799 14.0188C11.7799 13.905 11.7748 13.7912 11.7808 13.6779C11.8005 13.2963 12.0708 12.9952 12.4481 12.9306C12.6384 12.8981 12.8309 12.9066 13.0217 12.9182C13.2172 12.9297 13.3293 13.0572 13.3237 13.2334C13.3181 13.4063 13.1984 13.5209 13.0007 13.5312C12.866 13.5384 12.7308 13.5329 12.5961 13.5341C12.4494 13.5359 12.3732 13.6064 12.3749 13.7579C12.3771 13.9354 12.3771 14.1129 12.3749 14.2904C12.3728 14.4615 12.4605 14.5355 12.6252 14.5338C12.7458 14.5325 12.8669 14.5295 12.9871 14.5359C13.2005 14.5471 13.3233 14.6613 13.3241 14.8414C13.325 15.0227 13.2009 15.1433 12.9922 15.1523C12.8506 15.1587 12.7077 15.1592 12.5662 15.1519C12.1085 15.1284 11.7885 14.796 11.7782 14.3379C11.7761 14.2314 11.7778 14.1249 11.7778 14.0184C11.7791 14.0188 11.7795 14.0188 11.7799 14.0188Z" fill="#0A0A0C"/>
<path d="M15.2415 13.9209C15.2415 13.63 15.239 13.3387 15.2424 13.0479C15.2449 12.8173 15.354 12.6864 15.5384 12.6796C15.73 12.6727 15.8571 12.807 15.8596 13.0474C15.8652 13.6296 15.8643 14.2118 15.8601 14.7935C15.8583 15.0365 15.7377 15.1661 15.541 15.1601C15.3557 15.1541 15.2454 15.0236 15.2424 14.7939C15.239 14.5031 15.2415 14.2118 15.2415 13.9209Z" fill="#0A0A0C"/>
</svg>
