<svg width="15" height="12" viewBox="0 0 15 12" fill="none" xmlns="http://www.w3.org/2000/svg">
<path fill-rule="evenodd" clip-rule="evenodd" d="M8.24222 0.35667C8.00605 0.609415 8.00688 1.01831 8.24407 1.26997L12.0934 5.35414H1.43943L1.35719 5.36003C1.06137 5.40279 0.833374 5.673 0.833374 5.99994C0.833374 6.35661 1.10471 6.64575 1.43943 6.64575H12.0922L8.24403 10.7298L8.18521 10.8021C8.00868 11.0545 8.02754 11.4134 8.24226 11.6431C8.47844 11.8958 8.86217 11.8967 9.09934 11.645L13.9739 6.47213C14.0874 6.35931 14.1601 6.20064 14.1661 6.02383C14.1723 5.85009 14.1129 5.67421 13.9881 5.5418L9.09931 0.354704L9.03121 0.292331C8.79357 0.105287 8.45692 0.126902 8.24222 0.35667Z" fill="white"/>
</svg>
