<svg width="10" height="9" viewBox="0 0 10 9" fill="none" xmlns="http://www.w3.org/2000/svg">
<path d="M7.69534 8.87511C7.62957 8.87537 7.56539 8.85487 7.51195 8.81652L5.00003 6.99543L2.48812 8.81652C2.43445 8.85544 2.3698 8.87629 2.30351 8.87605C2.23721 8.87581 2.17271 8.85449 2.11933 8.81518C2.06595 8.77587 2.02645 8.7206 2.00655 8.65736C1.98665 8.59412 1.98738 8.52619 2.00863 8.4634L2.98831 5.56164L0.449252 3.82043C0.394254 3.78275 0.352745 3.72848 0.330789 3.66554C0.308834 3.60259 0.307582 3.53428 0.327218 3.47057C0.346853 3.40686 0.386347 3.3511 0.439928 3.31144C0.493509 3.27178 0.55837 3.25029 0.625033 3.25011H3.75746L4.70277 0.340935C4.72313 0.278127 4.76287 0.223383 4.81627 0.184557C4.86968 0.14573 4.93401 0.124817 5.00003 0.124817C5.06606 0.124817 5.13039 0.14573 5.1838 0.184557C5.2372 0.223383 5.27693 0.278127 5.2973 0.340935L6.24261 3.25109H9.37503C9.44178 3.25106 9.50678 3.2724 9.56052 3.31198C9.61427 3.35157 9.65392 3.40732 9.67368 3.47108C9.69344 3.53483 9.69227 3.60324 9.67033 3.66628C9.6484 3.72932 9.60686 3.78368 9.55179 3.8214L7.01175 5.56164L7.99085 8.46262C8.00672 8.50958 8.01118 8.55965 8.00387 8.60868C7.99656 8.65771 7.97769 8.7043 7.94882 8.74461C7.91995 8.78491 7.88191 8.81776 7.83784 8.84045C7.79376 8.86314 7.74492 8.87503 7.69534 8.87511Z" fill="#FFAD30"/>
</svg>
