<svg width="16" height="17" viewBox="0 0 16 17" fill="none" xmlns="http://www.w3.org/2000/svg">
<path d="M6.83697 0.125C7.00165 0.21825 7.09405 0.344008 7.09234 0.548473C7.08122 2.01181 7.62018 3.2587 8.59331 4.33492C9.16008 4.962 9.76706 5.55187 10.3035 6.20718C11.2843 7.40531 11.7878 8.77796 11.8275 10.3209C11.8327 10.5258 11.89 10.5848 12.0936 10.5771C12.5119 10.5608 12.9316 10.5702 13.3508 10.5728C14.3461 10.5784 15.0669 11.2401 15.1276 12.235C15.1571 12.7163 15.1563 13.2022 15.1293 13.6838C15.0733 14.6749 14.3508 15.3456 13.3546 15.3495C12.1184 15.3542 10.8822 15.3508 9.64601 15.3508C9.55404 15.3508 9.46507 15.3474 9.38208 15.4068C8.44574 16.0784 7.3892 16.3239 6.25052 16.3239C4.26448 16.3243 2.65785 15.5424 1.41438 14.0115C0.941715 13.428 0.658116 12.7483 0.561872 11.9972C0.555884 11.9497 0.537491 11.904 0.524658 11.8573C0.524658 11.6157 0.524658 11.374 0.524658 11.1319C0.535352 11.1058 0.552462 11.0801 0.555456 11.0532C0.649561 10.2216 1.00374 9.49145 1.42978 8.78823C1.73476 8.28434 2.0667 7.7967 2.33276 7.26929C2.6741 6.59259 2.83365 5.8838 2.71773 5.12583C2.69592 4.98211 2.74639 4.87089 2.86659 4.79988C2.98294 4.73144 3.098 4.76224 3.20494 4.8371C4.15669 5.4984 4.59941 6.37785 4.38468 7.54989C4.29784 8.02427 4.17765 8.49308 4.15198 8.97815C4.1323 9.34644 4.29314 9.60651 4.60711 9.77933C5.36038 10.1934 6.2471 9.80798 6.4567 8.97558C6.60598 8.38272 6.47595 7.82108 6.25651 7.271C5.99601 6.61739 5.65253 6.00315 5.35482 5.36708C4.63705 3.83274 4.80943 2.40576 5.84673 1.07418C6.04349 0.821805 6.25181 0.580126 6.47124 0.347002C6.55466 0.258458 6.64491 0.183174 6.75142 0.125428C6.78008 0.125 6.80874 0.125 6.83697 0.125ZM3.38374 5.78456C3.34396 6.02967 3.31787 6.24525 3.27253 6.45699C3.11683 7.17732 2.7511 7.80269 2.36997 8.42036C2.07183 8.90372 1.76086 9.37981 1.51918 9.89567C1.22189 10.5305 1.05165 11.1905 1.14575 11.8984C1.28092 12.9173 1.8109 13.7129 2.56717 14.3717C3.94281 15.5706 5.555 15.9086 7.32118 15.6386C7.61505 15.5937 7.8995 15.4842 8.21005 15.3238C8.12878 15.3161 8.10097 15.3127 8.07274 15.311C7.2104 15.258 6.56064 14.6728 6.44087 13.8181C6.37585 13.3528 6.41906 12.8814 6.41735 12.4126C6.4135 11.2688 7.13468 10.551 8.27977 10.5493C9.18917 10.548 10.099 10.5441 11.0084 10.5531C11.1833 10.5548 11.2372 10.5142 11.23 10.3316C11.1744 8.95377 10.7483 7.71714 9.87571 6.63921C9.34701 5.98646 8.74303 5.40258 8.18652 4.7755C7.55773 4.06715 7.044 3.29121 6.76126 2.37711C6.64491 2.00026 6.57733 1.61272 6.52043 1.20935C6.4845 1.2333 6.46397 1.241 6.45157 1.25597C5.59093 2.2984 5.24103 3.43921 5.75519 4.75882C5.98532 5.34911 6.29159 5.90177 6.5585 6.47367C6.88573 7.17433 7.13939 7.88952 7.09405 8.68386C7.02646 9.86915 6.1607 10.6489 5.0062 10.533C4.2756 10.4594 3.40256 9.90551 3.57152 8.75871C3.6451 8.25953 3.77043 7.77061 3.83031 7.26971C3.89661 6.72134 3.77813 6.23071 3.38374 5.78456ZM10.7641 14.7297C11.638 14.7297 12.5115 14.7352 13.3854 14.728C14.0433 14.7224 14.5061 14.2874 14.536 13.6342C14.5566 13.1804 14.5557 12.7244 14.5365 12.2705C14.5087 11.6169 14.0403 11.1725 13.3914 11.1712C11.6509 11.1674 9.91078 11.1674 8.17027 11.1712C7.49485 11.1725 7.02261 11.6499 7.01406 12.3283C7.00935 12.712 7.01278 13.0957 7.0132 13.4794C7.01449 14.2793 7.46619 14.7288 8.27079 14.7301C9.10191 14.7305 9.93303 14.7297 10.7641 14.7297Z" fill="white"/>
<path d="M13.0616 13.2488C13.0616 13.4473 13.0654 13.6462 13.0607 13.8447C13.0547 14.0868 12.9448 14.1975 12.7087 14.2027C12.517 14.207 12.3254 14.2078 12.1342 14.2023C11.7539 14.1911 11.5204 13.9443 11.5041 13.5439C11.4857 13.0948 11.6799 12.8275 12.0641 12.7783C12.1479 12.7676 12.2339 12.7736 12.3186 12.7663C12.3755 12.7616 12.4597 12.7924 12.4601 12.6889C12.4601 12.6063 12.4114 12.5528 12.3293 12.5494C12.1736 12.5434 12.017 12.5481 11.8613 12.5447C11.6384 12.5396 11.505 12.4211 11.5084 12.2359C11.5118 12.052 11.6444 11.942 11.8724 11.9382C12.0213 11.936 12.1706 11.9356 12.3194 11.9382C12.7497 11.9454 13.0393 12.2218 13.059 12.6525C13.068 12.8506 13.0607 13.0499 13.0607 13.2484C13.0607 13.2488 13.0611 13.2488 13.0616 13.2488ZM12.3049 13.3506C12.2193 13.3545 12.1231 13.3249 12.1274 13.4648C12.1316 13.5987 12.2283 13.5559 12.2942 13.5563C12.3678 13.5568 12.4721 13.5983 12.4751 13.455C12.479 13.3061 12.3695 13.3651 12.3049 13.3506Z" fill="white"/>
<path d="M8.67317 12.2964C8.71252 12.2476 8.7523 12.1993 8.7908 12.1497C8.93752 11.9611 9.11161 11.9179 9.26261 12.0329C9.40334 12.1403 9.40419 12.2998 9.26346 12.503C9.1946 12.6023 9.1283 12.7036 9.05173 12.7965C8.98585 12.876 8.99184 12.9389 9.04959 13.0206C9.19716 13.2289 9.33832 13.4424 9.47905 13.6554C9.59925 13.8376 9.57915 13.9997 9.429 14.1015C9.28271 14.2008 9.12145 14.1571 8.99184 13.9817C8.88662 13.8397 8.78353 13.696 8.67873 13.5536C8.67616 13.5497 8.66633 13.551 8.62997 13.545C8.62997 13.6502 8.63467 13.7529 8.62911 13.8547C8.61842 14.0489 8.49865 14.1704 8.32199 14.1618C8.1372 14.1533 8.02855 14.0485 8.02684 13.865C8.02171 13.2328 8.02128 12.6005 8.02684 11.9683C8.02855 11.7793 8.16586 11.6492 8.33739 11.6638C8.51747 11.6787 8.62227 11.781 8.62954 11.967C8.63339 12.0718 8.63039 12.1766 8.63039 12.2819C8.64408 12.287 8.65863 12.2917 8.67317 12.2964Z" fill="white"/>
<path d="M9.77989 13.0188C9.77989 12.905 9.77475 12.7912 9.78074 12.6779C9.80042 12.2963 10.0708 11.9952 10.448 11.9306C10.6384 11.8981 10.8309 11.9066 11.0216 11.9182C11.2171 11.9297 11.3292 12.0572 11.3236 12.2334C11.3181 12.4063 11.1983 12.5209 11.0007 12.5312C10.8659 12.5384 10.7308 12.5329 10.596 12.5341C10.4493 12.5359 10.3732 12.6064 10.3749 12.7579C10.377 12.9354 10.377 13.1129 10.3749 13.2904C10.3727 13.4615 10.4604 13.5355 10.6251 13.5338C10.7457 13.5325 10.8668 13.5295 10.987 13.5359C11.2004 13.5471 11.3232 13.6613 11.3241 13.8414C11.3249 14.0227 11.2009 14.1433 10.9921 14.1523C10.8505 14.1587 10.7077 14.1592 10.5661 14.1519C10.1084 14.1284 9.78844 13.796 9.77818 13.3379C9.77604 13.2314 9.77775 13.1249 9.77775 13.0184C9.77903 13.0188 9.77946 13.0188 9.77989 13.0188Z" fill="white"/>
<path d="M13.2415 12.9209C13.2415 12.63 13.239 12.3387 13.2424 12.0479C13.2449 11.8173 13.354 11.6864 13.5384 11.6796C13.73 11.6727 13.8571 11.807 13.8596 12.0474C13.8652 12.6296 13.8643 13.2118 13.8601 13.7935C13.8583 14.0365 13.7377 14.1661 13.541 14.1601C13.3557 14.1541 13.2454 14.0236 13.2424 13.7939C13.239 13.5031 13.2415 13.2118 13.2415 12.9209Z" fill="white"/>
</svg>
