<svg width="32" height="24" viewBox="0 0 32 24" fill="none" xmlns="http://www.w3.org/2000/svg">
<path d="M27.6394 0H3.63512C2.67091 0.00140458 1.74663 0.385277 1.06513 1.06738C0.383625 1.74948 0.000560874 2.67409 0 3.6383V17.1541C0.00028074 18.1183 0.383288 19.043 1.06488 19.725C1.74648 20.407 2.67092 20.7905 3.63512 20.7914H12.4466L9.2729 22.4747C8.33203 22.9118 8.9865 24.3512 9.93692 23.9205C9.99101 23.8792 15.5715 20.9409 15.6373 20.8974L21.2517 23.8813C21.3662 23.9427 21.4941 23.9748 21.624 23.9746C22.4355 24.0075 22.7325 22.8301 22.0017 22.4747L18.828 20.7914H27.6394C28.6034 20.7902 29.5275 20.4068 30.209 19.725C30.8905 19.0433 31.2737 18.1191 31.2746 17.1552V3.6383C31.274 2.67409 30.8909 1.74948 30.2094 1.06738C29.5279 0.385277 28.6037 0.00140458 27.6394 0ZM29.6835 17.1531C29.6836 17.4216 29.6308 17.6876 29.5282 17.9358C29.4256 18.1839 29.275 18.4095 29.0852 18.5995C28.8954 18.7895 28.67 18.9402 28.422 19.0431C28.1739 19.146 27.908 19.1991 27.6394 19.1992H3.63512C3.09309 19.1984 2.57351 18.9826 2.19033 18.5992C1.80715 18.2159 1.59166 17.6962 1.59109 17.1541V3.6383C1.59109 2.50863 2.50544 1.59322 3.63512 1.59216H27.6394C28.1815 1.593 28.701 1.80877 29.0842 2.19214C29.4674 2.57552 29.6829 3.09521 29.6835 3.63724V17.1531Z" fill="#FFA307"/>
<path d="M14.235 6.72188H8.24611C8.03512 6.72188 7.83277 6.80569 7.68357 6.95489C7.53438 7.10408 7.45056 7.30643 7.45056 7.51743C7.45056 7.72842 7.53438 7.93077 7.68357 8.07996C7.83277 8.22916 8.03512 8.31297 8.24611 8.31297H10.445V13.2729C10.445 13.4839 10.5288 13.6863 10.678 13.8355C10.8272 13.9847 11.0296 14.0685 11.2405 14.0685C11.4515 14.0685 11.6539 13.9847 11.8031 13.8355C11.9523 13.6863 12.0361 13.4839 12.0361 13.2729V8.31297H14.235C15.2756 8.30873 15.2756 6.72718 14.235 6.72188ZM23.3774 6.80249C23.2835 6.75666 23.1815 6.72978 23.0773 6.72336C22.973 6.71695 22.8685 6.73114 22.7697 6.76512C22.6709 6.7991 22.5797 6.85221 22.5015 6.92142C22.4232 6.99062 22.3593 7.07456 22.3135 7.16845L20.2218 11.4559L18.1311 7.16632C17.6696 6.23288 16.244 6.9266 16.698 7.86641L19.5068 13.6219C19.7805 14.2 20.662 14.2043 20.9367 13.6219L23.7434 7.86641C23.7892 7.77252 23.8161 7.67053 23.8225 7.56625C23.8289 7.46197 23.8147 7.35745 23.7807 7.25866C23.7468 7.15986 23.6937 7.06873 23.6245 6.99046C23.5553 6.91219 23.4713 6.84832 23.3774 6.80249Z" fill="#FFA307"/>
</svg>
